<svg xmlns="http://www.w3.org/2000/svg" version="1.1" xmlns:xlink="http://www.w3.org/1999/xlink" xmlns:svgjs="http://svgjs.dev/svgjs" width="1000" height="1000" viewBox="0 0 1000 1000"><rect width="1000" height="1000" fill="#ffffff"></rect><g transform="matrix(0.7,0,0,0.7,149.90044910179654,149.90044910179637)"><svg viewBox="0 0 334 334" data-background-color="#ffffff" preserveAspectRatio="xMidYMid meet" height="1000" width="1000" xmlns="http://www.w3.org/2000/svg" xmlns:xlink="http://www.w3.org/1999/xlink"><g id="tight-bounds" transform="matrix(1,0,0,1,0.04749999999998522,0.04750000000001364)"><svg viewBox="0 0 333.90454557049503 333.90454557049503" height="333.90454557049503" width="333.90454557049503"><g><svg></svg></g><g><svg viewBox="0 0 333.90454557049503 333.90454557049503" height="333.90454557049503" width="333.90454557049503"><g><path d="M0 166.952c0-92.205 74.747-166.952 166.952-166.952 92.205 0 166.952 74.747 166.953 166.952 0 92.205-74.747 166.952-166.953 166.953-92.205 0-166.952-74.747-166.952-166.953zM166.952 316.63c82.665 0 149.677-67.013 149.678-149.678 0-82.665-67.013-149.677-149.678-149.677-82.665 0-149.677 67.013-149.677 149.677 0 82.665 67.013 149.677 149.677 149.678z" data-fill-palette-color="tertiary" fill="#ff5858" stroke="transparent"></path><ellipse rx="160.27418187383762" ry="160.27418187383762" cx="166.95227278524752" cy="166.95227278524752" fill="#ff5858" stroke="transparent" stroke-width="0" fill-opacity="1" data-fill-palette-color="tertiary"></ellipse></g><g transform="matrix(1,0,0,1,105.77537175749936,71.17305217166896)"><svg viewBox="0 0 122.35380205549632 191.55844122715712" height="191.55844122715712" width="122.35380205549632"><g><svg viewBox="0 0 122.35380205549632 191.55844122715712" height="191.55844122715712" width="122.35380205549632"><g><svg viewBox="0 0 122.35380205549632 191.55844122715712" height="191.55844122715712" width="122.35380205549632"><g><svg viewBox="0 0 122.35380205549632 191.55844122715712" height="191.55844122715712" width="122.35380205549632"><g><svg viewBox="0 0 122.35380205549632 191.55844122715712" height="191.55844122715712" width="122.35380205549632"><g><svg viewBox="0 0 122.35380205549632 191.55844122715712" height="191.55844122715712" width="122.35380205549632"><g transform="matrix(1,0,0,1,0,0)"><svg width="122.35380205549632" viewBox="1.5 -34.29999923706055 22.100000381469727 34.599998474121094" height="191.55844122715712" data-palette-color="#ffffff"><path d="M13.25-34.3L13.25-34.3Q15-34.3 16.6-33.98 18.2-33.65 19.53-33.23 20.85-32.8 21.78-32.35 22.7-31.9 23.05-31.65L23.05-31.65 20.6-27.35 19.95-27.7Q19.3-28.05 18.25-28.5 17.2-28.95 15.95-29.3 14.7-29.65 13.55-29.65L13.55-29.65Q11.75-29.65 10.43-28.8 9.1-27.95 9.1-26.15L9.1-26.15Q9.1-23.9 10.55-22.48 12-21.05 15.1-19.85L15.1-19.85Q17.1-19.05 18.68-18.18 20.25-17.3 21.35-16.15 22.45-15 23.03-13.5 23.6-12 23.6-9.9L23.6-9.9Q23.6-8 22.88-6.15 22.15-4.3 20.73-2.88 19.3-1.45 17.2-0.58 15.1 0.3 12.35 0.3L12.35 0.3Q10.4 0.3 8.65-0.1 6.9-0.5 5.48-1.03 4.05-1.55 3.03-2.1 2-2.65 1.5-2.95L1.5-2.95 3.6-7.55 4.5-7.05Q5.4-6.55 6.7-5.95 8-5.35 9.45-4.85 10.9-4.35 11.95-4.35L11.95-4.35Q14.6-4.35 15.9-5.65 17.2-6.95 17.2-9.3L17.2-9.3Q17.2-10.4 16.85-11.23 16.5-12.05 15.85-12.65 15.2-13.25 14.28-13.73 13.35-14.2 12.2-14.65L12.2-14.65Q9.95-15.6 8.18-16.55 6.4-17.5 5.15-18.73 3.9-19.95 3.25-21.53 2.6-23.1 2.6-25.3L2.6-25.3Q2.6-27.15 3.4-28.78 4.2-30.4 5.6-31.63 7-32.85 8.95-33.58 10.9-34.3 13.25-34.3Z" opacity="1" transform="matrix(1,0,0,1,0,0)" fill="#ffffff" class="undefined-text-0" data-fill-palette-color="quaternary" id="text-0"></path></svg></g></svg></g></svg></g></svg></g><g></g></svg></g></svg></g></svg></g></svg></g><defs></defs></svg><rect width="333.90454557049503" height="333.90454557049503" fill="none" stroke="none" visibility="hidden"></rect></g></svg></g></svg>